<mxfile modified="2023-03-15T22:00:06.920Z" host="Electron" agent="5.0 (Windows NT 10.0; Win64; x64) AppleWebKit/537.36 (KHTML, like Gecko) draw.io/20.3.0 Chrome/104.0.5112.114 Electron/20.1.3 Safari/537.36" etag="9Q6wbqPf1TMTRU7t_zAE" compressed="false" version="20.3.0" type="device">
  <diagram id="iJwj0JujM13rcgcpDBCf" name="Standard Base Logical Module Functionality Groups - HL">
    <mxGraphModel dx="782" dy="517" grid="1" gridSize="10" guides="1" tooltips="1" connect="0" arrows="1" fold="1" page="1" pageScale="1" pageWidth="827" pageHeight="1169" math="0" shadow="0">
      <root>
        <mxCell id="kqEcUKh6x4xUHImFHUBu-0" />
        <mxCell id="kqEcUKh6x4xUHImFHUBu-1" parent="kqEcUKh6x4xUHImFHUBu-0" />
        <mxCell id="neuzF8ryyaMldTGZhR9j-232" value="Authorisation" style="rounded=1;whiteSpace=wrap;html=1;strokeWidth=1;fillColor=none;dashed=1;absoluteArcSize=1;arcSize=8;container=1;collapsible=0;recursiveResize=0;align=left;verticalAlign=top;" parent="kqEcUKh6x4xUHImFHUBu-1" vertex="1">
          <mxGeometry x="280" y="480" width="150" height="210" as="geometry" />
        </mxCell>
        <mxCell id="neuzF8ryyaMldTGZhR9j-222" value="" style="fontStyle=1;align=center;verticalAlign=top;childLayout=stackLayout;horizontal=1;horizontalStack=0;resizeParent=1;resizeParentMax=0;resizeLast=0;marginBottom=0;strokeColor=#d6b656;strokeWidth=2;fillColor=none;" parent="neuzF8ryyaMldTGZhR9j-232" vertex="1">
          <mxGeometry x="10" y="30" width="130" height="53" as="geometry" />
        </mxCell>
        <mxCell id="neuzF8ryyaMldTGZhR9j-223" value="Module &lt;br&gt;Permission Mgmt" style="html=1;align=left;spacingLeft=4;verticalAlign=middle;strokeColor=none;fillColor=none;fontStyle=1" parent="neuzF8ryyaMldTGZhR9j-222" vertex="1">
          <mxGeometry width="130" height="20" as="geometry" />
        </mxCell>
        <mxCell id="neuzF8ryyaMldTGZhR9j-224" value="" style="shape=ellipse;" parent="neuzF8ryyaMldTGZhR9j-223" vertex="1">
          <mxGeometry x="1" width="20" height="16" relative="1" as="geometry">
            <mxPoint x="-25" y="7" as="offset" />
          </mxGeometry>
        </mxCell>
        <mxCell id="neuzF8ryyaMldTGZhR9j-225" value="" style="line;strokeWidth=1;fillColor=none;align=left;verticalAlign=middle;spacingTop=-1;spacingLeft=3;spacingRight=3;rotatable=0;labelPosition=right;points=[];portConstraint=eastwest;" parent="neuzF8ryyaMldTGZhR9j-222" vertex="1">
          <mxGeometry y="20" width="130" height="8" as="geometry" />
        </mxCell>
        <mxCell id="neuzF8ryyaMldTGZhR9j-226" value="&lt;font style=&quot;font-size: 10px ; line-height: 100%&quot;&gt;Error_Read, Session_Read, &lt;br&gt;User_Create, etc.&lt;/font&gt;" style="html=1;align=center;spacingLeft=4;verticalAlign=top;strokeColor=none;fillColor=none;spacingTop=-10;" parent="neuzF8ryyaMldTGZhR9j-222" vertex="1">
          <mxGeometry y="28" width="130" height="25" as="geometry" />
        </mxCell>
        <mxCell id="neuzF8ryyaMldTGZhR9j-227" value="" style="fontStyle=1;align=center;verticalAlign=top;childLayout=stackLayout;horizontal=1;horizontalStack=0;resizeParent=1;resizeParentMax=0;resizeLast=0;marginBottom=0;strokeColor=#d6b656;strokeWidth=2;fillColor=none;" parent="neuzF8ryyaMldTGZhR9j-232" vertex="1">
          <mxGeometry x="10" y="90" width="130" height="53" as="geometry" />
        </mxCell>
        <mxCell id="neuzF8ryyaMldTGZhR9j-228" value="Group Role &amp;amp; &lt;br&gt;Permissions Mgmt" style="html=1;align=left;spacingLeft=4;verticalAlign=middle;strokeColor=none;fillColor=none;fontStyle=1" parent="neuzF8ryyaMldTGZhR9j-227" vertex="1">
          <mxGeometry width="130" height="20" as="geometry" />
        </mxCell>
        <mxCell id="neuzF8ryyaMldTGZhR9j-229" value="" style="shape=ellipse;" parent="neuzF8ryyaMldTGZhR9j-228" vertex="1">
          <mxGeometry x="1" width="20" height="16" relative="1" as="geometry">
            <mxPoint x="-25" y="7" as="offset" />
          </mxGeometry>
        </mxCell>
        <mxCell id="neuzF8ryyaMldTGZhR9j-230" value="" style="line;strokeWidth=1;fillColor=none;align=left;verticalAlign=middle;spacingTop=-1;spacingLeft=3;spacingRight=3;rotatable=0;labelPosition=right;points=[];portConstraint=eastwest;" parent="neuzF8ryyaMldTGZhR9j-227" vertex="1">
          <mxGeometry y="20" width="130" height="8" as="geometry" />
        </mxCell>
        <mxCell id="neuzF8ryyaMldTGZhR9j-231" value="&lt;font style=&quot;font-size: 10px ; line-height: 90%&quot;&gt;Owner/ Mgr/ Grp Contact &lt;br&gt;Prsn / Member/ Consulant, Guest&lt;/font&gt;" style="html=1;align=center;spacingLeft=4;verticalAlign=top;strokeColor=none;fillColor=none;spacingTop=-14;" parent="neuzF8ryyaMldTGZhR9j-227" vertex="1">
          <mxGeometry y="28" width="130" height="25" as="geometry" />
        </mxCell>
        <mxCell id="neuzF8ryyaMldTGZhR9j-239" value="" style="fontStyle=1;align=center;verticalAlign=top;childLayout=stackLayout;horizontal=1;horizontalStack=0;resizeParent=1;resizeParentMax=0;resizeLast=0;marginBottom=0;strokeColor=#d6b656;strokeWidth=2;fillColor=none;" parent="neuzF8ryyaMldTGZhR9j-232" vertex="1">
          <mxGeometry x="10" y="150" width="130" height="53" as="geometry" />
        </mxCell>
        <mxCell id="neuzF8ryyaMldTGZhR9j-240" value="Resource Role &amp;amp; &lt;br&gt;Permissions Mgmt" style="html=1;align=left;spacingLeft=4;verticalAlign=middle;strokeColor=none;fillColor=none;fontStyle=1" parent="neuzF8ryyaMldTGZhR9j-239" vertex="1">
          <mxGeometry width="130" height="20" as="geometry" />
        </mxCell>
        <mxCell id="neuzF8ryyaMldTGZhR9j-241" value="" style="shape=ellipse;" parent="neuzF8ryyaMldTGZhR9j-240" vertex="1">
          <mxGeometry x="1" width="20" height="16" relative="1" as="geometry">
            <mxPoint x="-25" y="7" as="offset" />
          </mxGeometry>
        </mxCell>
        <mxCell id="neuzF8ryyaMldTGZhR9j-242" value="" style="line;strokeWidth=1;fillColor=none;align=left;verticalAlign=middle;spacingTop=-1;spacingLeft=3;spacingRight=3;rotatable=0;labelPosition=right;points=[];portConstraint=eastwest;" parent="neuzF8ryyaMldTGZhR9j-239" vertex="1">
          <mxGeometry y="20" width="130" height="8" as="geometry" />
        </mxCell>
        <mxCell id="neuzF8ryyaMldTGZhR9j-243" value="&lt;font style=&quot;font-size: 10px&quot;&gt;Owner/Contributor/&lt;br&gt;Reviewer/Publisher&lt;/font&gt;" style="html=1;align=center;spacingLeft=4;verticalAlign=top;strokeColor=none;fillColor=none;spacingTop=-10;" parent="neuzF8ryyaMldTGZhR9j-239" vertex="1">
          <mxGeometry y="28" width="130" height="25" as="geometry" />
        </mxCell>
        <mxCell id="neuzF8ryyaMldTGZhR9j-149" value="Users,Groups" style="rounded=1;whiteSpace=wrap;html=1;strokeWidth=1;fillColor=none;dashed=1;absoluteArcSize=1;arcSize=8;container=1;collapsible=0;recursiveResize=0;align=left;verticalAlign=top;" parent="kqEcUKh6x4xUHImFHUBu-1" vertex="1">
          <mxGeometry x="280" y="323" width="150" height="150" as="geometry" />
        </mxCell>
        <mxCell id="neuzF8ryyaMldTGZhR9j-260" value="Diagnostics / Errors" style="rounded=1;whiteSpace=wrap;html=1;strokeWidth=1;fillColor=none;dashed=1;absoluteArcSize=1;arcSize=8;container=1;collapsible=0;recursiveResize=0;align=left;verticalAlign=top;" parent="kqEcUKh6x4xUHImFHUBu-1" vertex="1">
          <mxGeometry x="120" y="540" width="150" height="150" as="geometry" />
        </mxCell>
        <mxCell id="neuzF8ryyaMldTGZhR9j-261" value="" style="fontStyle=1;align=center;verticalAlign=top;childLayout=stackLayout;horizontal=1;horizontalStack=0;resizeParent=1;resizeParentMax=0;resizeLast=0;marginBottom=0;strokeColor=#d6b656;strokeWidth=2;fillColor=none;" parent="neuzF8ryyaMldTGZhR9j-260" vertex="1">
          <mxGeometry x="10" y="87" width="130" height="53" as="geometry" />
        </mxCell>
        <mxCell id="neuzF8ryyaMldTGZhR9j-262" value="Error &lt;br&gt;Recording" style="html=1;align=left;spacingLeft=4;verticalAlign=middle;strokeColor=none;fillColor=none;fontStyle=1" parent="neuzF8ryyaMldTGZhR9j-261" vertex="1">
          <mxGeometry width="130" height="20" as="geometry" />
        </mxCell>
        <mxCell id="neuzF8ryyaMldTGZhR9j-263" value="" style="shape=ellipse;" parent="neuzF8ryyaMldTGZhR9j-262" vertex="1">
          <mxGeometry x="1" width="20" height="16" relative="1" as="geometry">
            <mxPoint x="-25" y="7" as="offset" />
          </mxGeometry>
        </mxCell>
        <mxCell id="neuzF8ryyaMldTGZhR9j-264" value="" style="line;strokeWidth=1;fillColor=none;align=left;verticalAlign=middle;spacingTop=-1;spacingLeft=3;spacingRight=3;rotatable=0;labelPosition=right;points=[];portConstraint=eastwest;" parent="neuzF8ryyaMldTGZhR9j-261" vertex="1">
          <mxGeometry y="20" width="130" height="8" as="geometry" />
        </mxCell>
        <mxCell id="neuzF8ryyaMldTGZhR9j-265" value="&lt;font style=&quot;font-size: 10px&quot;&gt;Sanitized/&lt;br&gt;Long Term/Queryable&lt;/font&gt;" style="html=1;align=center;spacingLeft=4;verticalAlign=top;strokeColor=none;fillColor=none;spacingTop=-10;" parent="neuzF8ryyaMldTGZhR9j-261" vertex="1">
          <mxGeometry y="28" width="130" height="25" as="geometry" />
        </mxCell>
        <mxCell id="neuzF8ryyaMldTGZhR9j-266" value="" style="fontStyle=1;align=center;verticalAlign=top;childLayout=stackLayout;horizontal=1;horizontalStack=0;resizeParent=1;resizeParentMax=0;resizeLast=0;marginBottom=0;strokeColor=#d6b656;strokeWidth=2;fillColor=none;" parent="neuzF8ryyaMldTGZhR9j-260" vertex="1">
          <mxGeometry x="10" y="27" width="130" height="53" as="geometry" />
        </mxCell>
        <mxCell id="neuzF8ryyaMldTGZhR9j-267" value="Diagnostic &lt;br&gt;Logging" style="html=1;align=left;spacingLeft=4;verticalAlign=middle;strokeColor=none;fillColor=none;fontStyle=1" parent="neuzF8ryyaMldTGZhR9j-266" vertex="1">
          <mxGeometry width="130" height="20" as="geometry" />
        </mxCell>
        <mxCell id="neuzF8ryyaMldTGZhR9j-268" value="" style="shape=ellipse;" parent="neuzF8ryyaMldTGZhR9j-267" vertex="1">
          <mxGeometry x="1" width="20" height="16" relative="1" as="geometry">
            <mxPoint x="-25" y="7" as="offset" />
          </mxGeometry>
        </mxCell>
        <mxCell id="neuzF8ryyaMldTGZhR9j-269" value="" style="line;strokeWidth=1;fillColor=none;align=left;verticalAlign=middle;spacingTop=-1;spacingLeft=3;spacingRight=3;rotatable=0;labelPosition=right;points=[];portConstraint=eastwest;" parent="neuzF8ryyaMldTGZhR9j-266" vertex="1">
          <mxGeometry y="20" width="130" height="8" as="geometry" />
        </mxCell>
        <mxCell id="neuzF8ryyaMldTGZhR9j-270" value="&lt;font style=&quot;font-size: 10px&quot;&gt;Sanitized&lt;br&gt;Rolling 30/90 day log&lt;/font&gt;" style="html=1;align=center;spacingLeft=4;verticalAlign=top;strokeColor=none;fillColor=none;spacingTop=-8;" parent="neuzF8ryyaMldTGZhR9j-266" vertex="1">
          <mxGeometry y="28" width="130" height="25" as="geometry" />
        </mxCell>
        <mxCell id="neuzF8ryyaMldTGZhR9j-201" value="Branding" style="rounded=1;whiteSpace=wrap;html=1;strokeWidth=1;fillColor=none;dashed=1;absoluteArcSize=1;arcSize=8;container=1;collapsible=0;recursiveResize=0;align=left;verticalAlign=top;" parent="kqEcUKh6x4xUHImFHUBu-1" vertex="1">
          <mxGeometry x="120" y="380" width="150" height="150" as="geometry" />
        </mxCell>
        <mxCell id="neuzF8ryyaMldTGZhR9j-212" value="" style="fontStyle=1;align=center;verticalAlign=top;childLayout=stackLayout;horizontal=1;horizontalStack=0;resizeParent=1;resizeParentMax=0;resizeLast=0;marginBottom=0;strokeColor=#d6b656;strokeWidth=2;fillColor=none;" parent="neuzF8ryyaMldTGZhR9j-201" vertex="1">
          <mxGeometry x="10" y="23" width="130" height="53" as="geometry" />
        </mxCell>
        <mxCell id="neuzF8ryyaMldTGZhR9j-213" value="Sys Sponsor Info&lt;br&gt;Configuration" style="html=1;align=left;spacingLeft=4;verticalAlign=middle;strokeColor=none;fillColor=none;fontStyle=1" parent="neuzF8ryyaMldTGZhR9j-212" vertex="1">
          <mxGeometry width="130" height="20" as="geometry" />
        </mxCell>
        <mxCell id="neuzF8ryyaMldTGZhR9j-214" value="" style="shape=ellipse;" parent="neuzF8ryyaMldTGZhR9j-213" vertex="1">
          <mxGeometry x="1" width="20" height="16" relative="1" as="geometry">
            <mxPoint x="-25" y="7" as="offset" />
          </mxGeometry>
        </mxCell>
        <mxCell id="neuzF8ryyaMldTGZhR9j-215" value="" style="line;strokeWidth=1;fillColor=none;align=left;verticalAlign=middle;spacingTop=-1;spacingLeft=3;spacingRight=3;rotatable=0;labelPosition=right;points=[];portConstraint=eastwest;" parent="neuzF8ryyaMldTGZhR9j-212" vertex="1">
          <mxGeometry y="20" width="130" height="8" as="geometry" />
        </mxCell>
        <mxCell id="neuzF8ryyaMldTGZhR9j-216" value="&lt;font style=&quot;font-size: 10px&quot;&gt;Company Paying &lt;br&gt;for Service&lt;/font&gt;" style="html=1;align=center;spacingLeft=4;verticalAlign=top;strokeColor=none;fillColor=none;spacingTop=-12;" parent="neuzF8ryyaMldTGZhR9j-212" vertex="1">
          <mxGeometry y="28" width="130" height="25" as="geometry" />
        </mxCell>
        <mxCell id="neuzF8ryyaMldTGZhR9j-217" value="" style="fontStyle=1;align=center;verticalAlign=top;childLayout=stackLayout;horizontal=1;horizontalStack=0;resizeParent=1;resizeParentMax=0;resizeLast=0;marginBottom=0;strokeColor=#d6b656;strokeWidth=2;fillColor=none;" parent="neuzF8ryyaMldTGZhR9j-201" vertex="1">
          <mxGeometry x="10" y="83" width="130" height="53" as="geometry" />
        </mxCell>
        <mxCell id="neuzF8ryyaMldTGZhR9j-218" value="Svc Provider Info&lt;br&gt;Configuration" style="html=1;align=left;spacingLeft=4;verticalAlign=middle;strokeColor=none;fillColor=none;fontStyle=1" parent="neuzF8ryyaMldTGZhR9j-217" vertex="1">
          <mxGeometry width="130" height="20" as="geometry" />
        </mxCell>
        <mxCell id="neuzF8ryyaMldTGZhR9j-219" value="" style="shape=ellipse;" parent="neuzF8ryyaMldTGZhR9j-218" vertex="1">
          <mxGeometry x="1" width="20" height="16" relative="1" as="geometry">
            <mxPoint x="-25" y="7" as="offset" />
          </mxGeometry>
        </mxCell>
        <mxCell id="neuzF8ryyaMldTGZhR9j-220" value="" style="line;strokeWidth=1;fillColor=none;align=left;verticalAlign=middle;spacingTop=-1;spacingLeft=3;spacingRight=3;rotatable=0;labelPosition=right;points=[];portConstraint=eastwest;" parent="neuzF8ryyaMldTGZhR9j-217" vertex="1">
          <mxGeometry y="20" width="130" height="8" as="geometry" />
        </mxCell>
        <mxCell id="neuzF8ryyaMldTGZhR9j-221" value="&lt;font style=&quot;font-size: 10px&quot;&gt;Company Providing (often, &lt;br&gt;but not always, the same)&lt;/font&gt;" style="html=1;align=center;spacingLeft=4;verticalAlign=top;strokeColor=none;fillColor=none;spacingTop=-12;" parent="neuzF8ryyaMldTGZhR9j-217" vertex="1">
          <mxGeometry y="28" width="130" height="25" as="geometry" />
        </mxCell>
        <mxCell id="neuzF8ryyaMldTGZhR9j-0" value="Configuration" style="rounded=1;whiteSpace=wrap;html=1;strokeWidth=1;fillColor=none;dashed=1;absoluteArcSize=1;arcSize=8;container=1;collapsible=0;recursiveResize=0;align=left;verticalAlign=top;" parent="kqEcUKh6x4xUHImFHUBu-1" vertex="1">
          <mxGeometry x="120" y="160" width="150" height="210" as="geometry" />
        </mxCell>
        <mxCell id="neuzF8ryyaMldTGZhR9j-144" value="" style="fontStyle=1;align=center;verticalAlign=top;childLayout=stackLayout;horizontal=1;horizontalStack=0;resizeParent=1;resizeParentMax=0;resizeLast=0;marginBottom=0;strokeColor=#d6b656;strokeWidth=2;fillColor=none;" parent="neuzF8ryyaMldTGZhR9j-0" vertex="1">
          <mxGeometry x="10" y="150" width="130" height="53" as="geometry" />
        </mxCell>
        <mxCell id="neuzF8ryyaMldTGZhR9j-145" value="Country of Origin/&lt;br&gt;Embargo Configuration" style="html=1;align=left;spacingLeft=4;verticalAlign=middle;strokeColor=none;fillColor=none;fontStyle=1" parent="neuzF8ryyaMldTGZhR9j-144" vertex="1">
          <mxGeometry width="130" height="20" as="geometry" />
        </mxCell>
        <mxCell id="neuzF8ryyaMldTGZhR9j-146" value="" style="shape=ellipse;" parent="neuzF8ryyaMldTGZhR9j-145" vertex="1">
          <mxGeometry x="1" width="20" height="16" relative="1" as="geometry">
            <mxPoint x="-25" y="7" as="offset" />
          </mxGeometry>
        </mxCell>
        <mxCell id="neuzF8ryyaMldTGZhR9j-147" value="" style="line;strokeWidth=1;fillColor=none;align=left;verticalAlign=middle;spacingTop=-1;spacingLeft=3;spacingRight=3;rotatable=0;labelPosition=right;points=[];portConstraint=eastwest;" parent="neuzF8ryyaMldTGZhR9j-144" vertex="1">
          <mxGeometry y="20" width="130" height="8" as="geometry" />
        </mxCell>
        <mxCell id="neuzF8ryyaMldTGZhR9j-148" value="&lt;span style=&quot;font-size: 10px&quot;&gt;There&#39;s always some &lt;br&gt;country in the bad books&lt;/span&gt;" style="html=1;align=center;spacingLeft=4;verticalAlign=top;strokeColor=none;fillColor=none;spacingTop=-12;" parent="neuzF8ryyaMldTGZhR9j-144" vertex="1">
          <mxGeometry y="28" width="130" height="25" as="geometry" />
        </mxCell>
        <mxCell id="neuzF8ryyaMldTGZhR9j-123" value="" style="fontStyle=1;align=center;verticalAlign=top;childLayout=stackLayout;horizontal=1;horizontalStack=0;resizeParent=1;resizeParentMax=0;resizeLast=0;marginBottom=0;strokeColor=#d6b656;strokeWidth=2;fillColor=none;" parent="neuzF8ryyaMldTGZhR9j-0" vertex="1">
          <mxGeometry x="10" y="30" width="130" height="53" as="geometry" />
        </mxCell>
        <mxCell id="neuzF8ryyaMldTGZhR9j-124" value="Env Configuration" style="html=1;align=left;spacingLeft=4;verticalAlign=middle;strokeColor=none;fillColor=none;fontStyle=1" parent="neuzF8ryyaMldTGZhR9j-123" vertex="1">
          <mxGeometry width="130" height="20" as="geometry" />
        </mxCell>
        <mxCell id="neuzF8ryyaMldTGZhR9j-125" value="" style="shape=ellipse;" parent="neuzF8ryyaMldTGZhR9j-124" vertex="1">
          <mxGeometry x="1" width="20" height="16" relative="1" as="geometry">
            <mxPoint x="-25" y="7" as="offset" />
          </mxGeometry>
        </mxCell>
        <mxCell id="neuzF8ryyaMldTGZhR9j-126" value="" style="line;strokeWidth=1;fillColor=none;align=left;verticalAlign=middle;spacingTop=-1;spacingLeft=3;spacingRight=3;rotatable=0;labelPosition=right;points=[];portConstraint=eastwest;" parent="neuzF8ryyaMldTGZhR9j-123" vertex="1">
          <mxGeometry y="20" width="130" height="8" as="geometry" />
        </mxCell>
        <mxCell id="neuzF8ryyaMldTGZhR9j-127" value="&lt;font style=&quot;font-size: 10px&quot;&gt;Network paths to &lt;br&gt;secure &amp;amp; other storage&amp;nbsp;&lt;/font&gt;" style="html=1;align=center;spacingLeft=4;verticalAlign=top;strokeColor=none;fillColor=none;spacingTop=-12;" parent="neuzF8ryyaMldTGZhR9j-123" vertex="1">
          <mxGeometry y="28" width="130" height="25" as="geometry" />
        </mxCell>
        <mxCell id="neuzF8ryyaMldTGZhR9j-128" value="" style="fontStyle=1;align=center;verticalAlign=top;childLayout=stackLayout;horizontal=1;horizontalStack=0;resizeParent=1;resizeParentMax=0;resizeLast=0;marginBottom=0;strokeColor=#d6b656;strokeWidth=2;fillColor=none;" parent="neuzF8ryyaMldTGZhR9j-0" vertex="1">
          <mxGeometry x="10" y="90" width="130" height="53" as="geometry" />
        </mxCell>
        <mxCell id="neuzF8ryyaMldTGZhR9j-129" value="System Config" style="html=1;align=left;spacingLeft=4;verticalAlign=middle;strokeColor=none;fillColor=none;fontStyle=1" parent="neuzF8ryyaMldTGZhR9j-128" vertex="1">
          <mxGeometry width="130" height="20" as="geometry" />
        </mxCell>
        <mxCell id="neuzF8ryyaMldTGZhR9j-130" value="" style="shape=ellipse;" parent="neuzF8ryyaMldTGZhR9j-129" vertex="1">
          <mxGeometry x="1" width="20" height="16" relative="1" as="geometry">
            <mxPoint x="-25" y="7" as="offset" />
          </mxGeometry>
        </mxCell>
        <mxCell id="neuzF8ryyaMldTGZhR9j-131" value="" style="line;strokeWidth=1;fillColor=none;align=left;verticalAlign=middle;spacingTop=-1;spacingLeft=3;spacingRight=3;rotatable=0;labelPosition=right;points=[];portConstraint=eastwest;" parent="neuzF8ryyaMldTGZhR9j-128" vertex="1">
          <mxGeometry y="20" width="130" height="8" as="geometry" />
        </mxCell>
        <mxCell id="neuzF8ryyaMldTGZhR9j-132" value="&lt;font style=&quot;font-size: 10px&quot;&gt;SysAdmin updatable &lt;br&gt;configuration&lt;/font&gt;" style="html=1;align=center;spacingLeft=4;verticalAlign=top;strokeColor=none;fillColor=none;spacingTop=-12;" parent="neuzF8ryyaMldTGZhR9j-128" vertex="1">
          <mxGeometry y="28" width="130" height="25" as="geometry" />
        </mxCell>
        <mxCell id="neuzF8ryyaMldTGZhR9j-133" value="Auditing" style="rounded=1;whiteSpace=wrap;html=1;strokeWidth=1;fillColor=none;dashed=1;absoluteArcSize=1;arcSize=8;container=1;collapsible=0;recursiveResize=0;align=left;verticalAlign=top;" parent="kqEcUKh6x4xUHImFHUBu-1" vertex="1">
          <mxGeometry x="280" y="160" width="150" height="150" as="geometry" />
        </mxCell>
        <mxCell id="neuzF8ryyaMldTGZhR9j-134" value="" style="fontStyle=1;align=center;verticalAlign=top;childLayout=stackLayout;horizontal=1;horizontalStack=0;resizeParent=1;resizeParentMax=0;resizeLast=0;marginBottom=0;strokeColor=#d6b656;strokeWidth=2;fillColor=none;" parent="neuzF8ryyaMldTGZhR9j-133" vertex="1">
          <mxGeometry x="10" y="23.5" width="130" height="53" as="geometry" />
        </mxCell>
        <mxCell id="neuzF8ryyaMldTGZhR9j-135" value="Sessions" style="html=1;align=left;spacingLeft=4;verticalAlign=middle;strokeColor=none;fillColor=none;fontStyle=1" parent="neuzF8ryyaMldTGZhR9j-134" vertex="1">
          <mxGeometry width="130" height="20" as="geometry" />
        </mxCell>
        <mxCell id="neuzF8ryyaMldTGZhR9j-136" value="" style="shape=ellipse;" parent="neuzF8ryyaMldTGZhR9j-135" vertex="1">
          <mxGeometry x="1" width="20" height="16" relative="1" as="geometry">
            <mxPoint x="-25" y="7" as="offset" />
          </mxGeometry>
        </mxCell>
        <mxCell id="neuzF8ryyaMldTGZhR9j-137" value="" style="line;strokeWidth=1;fillColor=none;align=left;verticalAlign=middle;spacingTop=-1;spacingLeft=3;spacingRight=3;rotatable=0;labelPosition=right;points=[];portConstraint=eastwest;" parent="neuzF8ryyaMldTGZhR9j-134" vertex="1">
          <mxGeometry y="20" width="130" height="8" as="geometry" />
        </mxCell>
        <mxCell id="neuzF8ryyaMldTGZhR9j-138" value="&lt;font style=&quot;font-size: 10px&quot;&gt;Multiple Sessions per user&lt;/font&gt;" style="html=1;align=center;spacingLeft=4;verticalAlign=top;strokeColor=none;fillColor=none;spacingTop=-10;" parent="neuzF8ryyaMldTGZhR9j-134" vertex="1">
          <mxGeometry y="28" width="130" height="25" as="geometry" />
        </mxCell>
        <mxCell id="neuzF8ryyaMldTGZhR9j-139" value="" style="fontStyle=1;align=center;verticalAlign=top;childLayout=stackLayout;horizontal=1;horizontalStack=0;resizeParent=1;resizeParentMax=0;resizeLast=0;marginBottom=0;strokeColor=#d6b656;strokeWidth=2;fillColor=none;" parent="neuzF8ryyaMldTGZhR9j-133" vertex="1">
          <mxGeometry x="10" y="83.5" width="130" height="53" as="geometry" />
        </mxCell>
        <mxCell id="neuzF8ryyaMldTGZhR9j-140" value="Session&lt;br&gt;Operation Auditing" style="html=1;align=left;spacingLeft=4;verticalAlign=middle;strokeColor=none;fillColor=none;fontStyle=1" parent="neuzF8ryyaMldTGZhR9j-139" vertex="1">
          <mxGeometry width="130" height="20" as="geometry" />
        </mxCell>
        <mxCell id="neuzF8ryyaMldTGZhR9j-141" value="" style="shape=ellipse;" parent="neuzF8ryyaMldTGZhR9j-140" vertex="1">
          <mxGeometry x="1" width="20" height="16" relative="1" as="geometry">
            <mxPoint x="-25" y="7" as="offset" />
          </mxGeometry>
        </mxCell>
        <mxCell id="neuzF8ryyaMldTGZhR9j-142" value="" style="line;strokeWidth=1;fillColor=none;align=left;verticalAlign=middle;spacingTop=-1;spacingLeft=3;spacingRight=3;rotatable=0;labelPosition=right;points=[];portConstraint=eastwest;" parent="neuzF8ryyaMldTGZhR9j-139" vertex="1">
          <mxGeometry y="20" width="130" height="8" as="geometry" />
        </mxCell>
        <mxCell id="neuzF8ryyaMldTGZhR9j-143" value="&lt;font style=&quot;font-size: 10px&quot;&gt;Record audit of ops whether&amp;nbsp;&lt;br&gt;Session is authenticated or not&lt;/font&gt;" style="html=1;align=center;spacingLeft=4;verticalAlign=top;strokeColor=none;fillColor=none;spacingTop=-11;" parent="neuzF8ryyaMldTGZhR9j-139" vertex="1">
          <mxGeometry y="28" width="130" height="25" as="geometry" />
        </mxCell>
        <mxCell id="neuzF8ryyaMldTGZhR9j-244" value="Profiles" style="rounded=1;whiteSpace=wrap;html=1;strokeWidth=1;fillColor=none;dashed=1;absoluteArcSize=1;arcSize=8;container=1;collapsible=0;recursiveResize=0;align=left;verticalAlign=top;" parent="kqEcUKh6x4xUHImFHUBu-1" vertex="1">
          <mxGeometry x="440" y="320" width="150" height="210" as="geometry" />
        </mxCell>
        <mxCell id="neuzF8ryyaMldTGZhR9j-180" value="" style="fontStyle=1;align=center;verticalAlign=top;childLayout=stackLayout;horizontal=1;horizontalStack=0;resizeParent=1;resizeParentMax=0;resizeLast=0;marginBottom=0;strokeColor=#d6b656;strokeWidth=2;fillColor=none;" parent="neuzF8ryyaMldTGZhR9j-244" vertex="1">
          <mxGeometry x="10" y="83.5" width="130" height="53" as="geometry" />
        </mxCell>
        <mxCell id="neuzF8ryyaMldTGZhR9j-181" value="Group/Org Profile&lt;br&gt;Mgmt" style="html=1;align=left;spacingLeft=4;verticalAlign=middle;strokeColor=none;fillColor=none;fontStyle=1" parent="neuzF8ryyaMldTGZhR9j-180" vertex="1">
          <mxGeometry width="130" height="20" as="geometry" />
        </mxCell>
        <mxCell id="neuzF8ryyaMldTGZhR9j-182" value="" style="shape=ellipse;" parent="neuzF8ryyaMldTGZhR9j-181" vertex="1">
          <mxGeometry x="1" width="20" height="16" relative="1" as="geometry">
            <mxPoint x="-25" y="7" as="offset" />
          </mxGeometry>
        </mxCell>
        <mxCell id="neuzF8ryyaMldTGZhR9j-183" value="" style="line;strokeWidth=1;fillColor=none;align=left;verticalAlign=middle;spacingTop=-1;spacingLeft=3;spacingRight=3;rotatable=0;labelPosition=right;points=[];portConstraint=eastwest;" parent="neuzF8ryyaMldTGZhR9j-180" vertex="1">
          <mxGeometry y="20" width="130" height="8" as="geometry" />
        </mxCell>
        <mxCell id="neuzF8ryyaMldTGZhR9j-184" value="&lt;font style=&quot;font-size: 10px&quot;&gt;Dept/Class name, public/ &lt;br&gt;private media collection, etc.&lt;/font&gt;" style="html=1;align=center;spacingLeft=4;verticalAlign=top;strokeColor=none;fillColor=none;spacingTop=-12;" parent="neuzF8ryyaMldTGZhR9j-180" vertex="1">
          <mxGeometry y="28" width="130" height="25" as="geometry" />
        </mxCell>
        <mxCell id="neuzF8ryyaMldTGZhR9j-185" value="" style="fontStyle=1;align=center;verticalAlign=top;childLayout=stackLayout;horizontal=1;horizontalStack=0;resizeParent=1;resizeParentMax=0;resizeLast=0;marginBottom=0;strokeColor=#d6b656;strokeWidth=2;fillColor=none;" parent="neuzF8ryyaMldTGZhR9j-244" vertex="1">
          <mxGeometry x="10" y="143.5" width="130" height="53" as="geometry" />
        </mxCell>
        <mxCell id="neuzF8ryyaMldTGZhR9j-186" value="Tenancy Profile &lt;br&gt;Mgmt" style="html=1;align=left;spacingLeft=4;verticalAlign=middle;strokeColor=none;fillColor=none;fontStyle=1" parent="neuzF8ryyaMldTGZhR9j-185" vertex="1">
          <mxGeometry width="130" height="20" as="geometry" />
        </mxCell>
        <mxCell id="neuzF8ryyaMldTGZhR9j-187" value="" style="shape=ellipse;" parent="neuzF8ryyaMldTGZhR9j-186" vertex="1">
          <mxGeometry x="1" width="20" height="16" relative="1" as="geometry">
            <mxPoint x="-25" y="7" as="offset" />
          </mxGeometry>
        </mxCell>
        <mxCell id="neuzF8ryyaMldTGZhR9j-188" value="" style="line;strokeWidth=1;fillColor=none;align=left;verticalAlign=middle;spacingTop=-1;spacingLeft=3;spacingRight=3;rotatable=0;labelPosition=right;points=[];portConstraint=eastwest;" parent="neuzF8ryyaMldTGZhR9j-185" vertex="1">
          <mxGeometry y="20" width="130" height="8" as="geometry" />
        </mxCell>
        <mxCell id="neuzF8ryyaMldTGZhR9j-189" value="&lt;font style=&quot;font-size: 10px&quot;&gt;Same as Org, but &lt;br&gt;with base Routing&lt;/font&gt;" style="html=1;align=center;spacingLeft=4;verticalAlign=top;strokeColor=none;fillColor=none;spacingTop=-12;" parent="neuzF8ryyaMldTGZhR9j-185" vertex="1">
          <mxGeometry y="28" width="130" height="25" as="geometry" />
        </mxCell>
        <mxCell id="neuzF8ryyaMldTGZhR9j-233" value="" style="fontStyle=1;align=center;verticalAlign=top;childLayout=stackLayout;horizontal=1;horizontalStack=0;resizeParent=1;resizeParentMax=0;resizeLast=0;marginBottom=0;strokeColor=#d6b656;strokeWidth=2;fillColor=none;" parent="neuzF8ryyaMldTGZhR9j-244" vertex="1">
          <mxGeometry x="10" y="23.5" width="130" height="53" as="geometry" />
        </mxCell>
        <mxCell id="neuzF8ryyaMldTGZhR9j-234" value="User Profile &lt;br&gt;Mgmt" style="html=1;align=left;spacingLeft=4;verticalAlign=middle;strokeColor=none;fillColor=none;fontStyle=1" parent="neuzF8ryyaMldTGZhR9j-233" vertex="1">
          <mxGeometry width="130" height="20" as="geometry" />
        </mxCell>
        <mxCell id="neuzF8ryyaMldTGZhR9j-235" value="" style="shape=ellipse;" parent="neuzF8ryyaMldTGZhR9j-234" vertex="1">
          <mxGeometry x="1" width="21" height="16" relative="1" as="geometry">
            <mxPoint x="-26" y="7" as="offset" />
          </mxGeometry>
        </mxCell>
        <mxCell id="neuzF8ryyaMldTGZhR9j-236" value="" style="line;strokeWidth=1;fillColor=none;align=left;verticalAlign=middle;spacingTop=-1;spacingLeft=3;spacingRight=3;rotatable=0;labelPosition=right;points=[];portConstraint=eastwest;" parent="neuzF8ryyaMldTGZhR9j-233" vertex="1">
          <mxGeometry y="20" width="130" height="8" as="geometry" />
        </mxCell>
        <mxCell id="neuzF8ryyaMldTGZhR9j-237" value="Avatars, email address, &lt;br&gt;private media collections, etc." style="html=1;align=center;spacingLeft=4;verticalAlign=top;strokeColor=none;fillColor=none;spacingTop=-12;fontSize=10;" parent="neuzF8ryyaMldTGZhR9j-233" vertex="1">
          <mxGeometry y="28" width="130" height="25" as="geometry" />
        </mxCell>
        <mxCell id="neuzF8ryyaMldTGZhR9j-271" value="Communication" style="rounded=1;whiteSpace=wrap;html=1;strokeWidth=1;fillColor=none;dashed=1;absoluteArcSize=1;arcSize=8;container=1;collapsible=0;recursiveResize=0;align=left;verticalAlign=top;" parent="kqEcUKh6x4xUHImFHUBu-1" vertex="1">
          <mxGeometry x="440" y="160" width="150" height="150" as="geometry" />
        </mxCell>
        <mxCell id="neuzF8ryyaMldTGZhR9j-272" value="" style="fontStyle=1;align=center;verticalAlign=top;childLayout=stackLayout;horizontal=1;horizontalStack=0;resizeParent=1;resizeParentMax=0;resizeLast=0;marginBottom=0;strokeColor=#d6b656;strokeWidth=2;fillColor=none;" parent="neuzF8ryyaMldTGZhR9j-271" vertex="1">
          <mxGeometry x="10" y="23.5" width="130" height="53" as="geometry" />
        </mxCell>
        <mxCell id="neuzF8ryyaMldTGZhR9j-273" value="Statement/Agreement&lt;br&gt;Mgmt" style="html=1;align=left;spacingLeft=4;verticalAlign=middle;strokeColor=none;fillColor=none;fontStyle=1" parent="neuzF8ryyaMldTGZhR9j-272" vertex="1">
          <mxGeometry width="130" height="20" as="geometry" />
        </mxCell>
        <mxCell id="neuzF8ryyaMldTGZhR9j-274" value="" style="shape=ellipse;" parent="neuzF8ryyaMldTGZhR9j-273" vertex="1">
          <mxGeometry x="1" width="20" height="16" relative="1" as="geometry">
            <mxPoint x="-25" y="7" as="offset" />
          </mxGeometry>
        </mxCell>
        <mxCell id="neuzF8ryyaMldTGZhR9j-275" value="" style="line;strokeWidth=1;fillColor=none;align=left;verticalAlign=middle;spacingTop=-1;spacingLeft=3;spacingRight=3;rotatable=0;labelPosition=right;points=[];portConstraint=eastwest;" parent="neuzF8ryyaMldTGZhR9j-272" vertex="1">
          <mxGeometry y="20" width="130" height="8" as="geometry" />
        </mxCell>
        <mxCell id="neuzF8ryyaMldTGZhR9j-276" value="&lt;font style=&quot;font-size: 10px&quot;&gt;Privacy, Tracking, &lt;br&gt;Terms &amp;amp; Conditions&lt;/font&gt;" style="html=1;align=center;spacingLeft=4;verticalAlign=top;strokeColor=none;fillColor=none;spacingTop=-12;" parent="neuzF8ryyaMldTGZhR9j-272" vertex="1">
          <mxGeometry y="28" width="130" height="25" as="geometry" />
        </mxCell>
        <mxCell id="neuzF8ryyaMldTGZhR9j-277" value="" style="fontStyle=1;align=center;verticalAlign=top;childLayout=stackLayout;horizontal=1;horizontalStack=0;resizeParent=1;resizeParentMax=0;resizeLast=0;marginBottom=0;strokeColor=#d6b656;strokeWidth=2;fillColor=none;" parent="neuzF8ryyaMldTGZhR9j-271" vertex="1">
          <mxGeometry x="10" y="83.5" width="130" height="53" as="geometry" />
        </mxCell>
        <mxCell id="neuzF8ryyaMldTGZhR9j-278" value="Notification &lt;br&gt;Mgmt" style="html=1;align=left;spacingLeft=4;verticalAlign=middle;strokeColor=none;fillColor=none;fontStyle=1" parent="neuzF8ryyaMldTGZhR9j-277" vertex="1">
          <mxGeometry width="130" height="20" as="geometry" />
        </mxCell>
        <mxCell id="neuzF8ryyaMldTGZhR9j-279" value="" style="shape=ellipse;" parent="neuzF8ryyaMldTGZhR9j-278" vertex="1">
          <mxGeometry x="1" width="20" height="16" relative="1" as="geometry">
            <mxPoint x="-25" y="7" as="offset" />
          </mxGeometry>
        </mxCell>
        <mxCell id="neuzF8ryyaMldTGZhR9j-280" value="" style="line;strokeWidth=1;fillColor=none;align=left;verticalAlign=middle;spacingTop=-1;spacingLeft=3;spacingRight=3;rotatable=0;labelPosition=right;points=[];portConstraint=eastwest;" parent="neuzF8ryyaMldTGZhR9j-277" vertex="1">
          <mxGeometry y="20" width="130" height="8" as="geometry" />
        </mxCell>
        <mxCell id="neuzF8ryyaMldTGZhR9j-281" value="&lt;font style=&quot;font-size: 10px&quot;&gt;Maintenance, security, &lt;br&gt;workflow notices.&amp;nbsp;&lt;/font&gt;" style="html=1;align=center;spacingLeft=4;verticalAlign=top;strokeColor=none;fillColor=none;spacingTop=-12;" parent="neuzF8ryyaMldTGZhR9j-277" vertex="1">
          <mxGeometry y="28" width="130" height="25" as="geometry" />
        </mxCell>
        <mxCell id="neuzF8ryyaMldTGZhR9j-282" value="Media &amp;amp; Search" style="rounded=1;whiteSpace=wrap;html=1;strokeWidth=1;fillColor=none;dashed=1;absoluteArcSize=1;arcSize=8;container=1;collapsible=0;recursiveResize=0;align=left;verticalAlign=top;" parent="kqEcUKh6x4xUHImFHUBu-1" vertex="1">
          <mxGeometry x="440" y="540" width="150" height="150" as="geometry" />
        </mxCell>
        <mxCell id="neuzF8ryyaMldTGZhR9j-283" value="" style="fontStyle=1;align=center;verticalAlign=top;childLayout=stackLayout;horizontal=1;horizontalStack=0;resizeParent=1;resizeParentMax=0;resizeLast=0;marginBottom=0;strokeColor=#d6b656;strokeWidth=2;fillColor=none;" parent="neuzF8ryyaMldTGZhR9j-282" vertex="1">
          <mxGeometry x="10" y="23.5" width="130" height="53" as="geometry" />
        </mxCell>
        <mxCell id="neuzF8ryyaMldTGZhR9j-284" value="Media &amp;amp; Versioning&lt;br&gt;Management" style="html=1;align=left;spacingLeft=4;verticalAlign=middle;strokeColor=none;fillColor=none;fontStyle=1" parent="neuzF8ryyaMldTGZhR9j-283" vertex="1">
          <mxGeometry width="130" height="20" as="geometry" />
        </mxCell>
        <mxCell id="neuzF8ryyaMldTGZhR9j-285" value="" style="shape=ellipse;" parent="neuzF8ryyaMldTGZhR9j-284" vertex="1">
          <mxGeometry x="1" width="20" height="16" relative="1" as="geometry">
            <mxPoint x="-25" y="7" as="offset" />
          </mxGeometry>
        </mxCell>
        <mxCell id="neuzF8ryyaMldTGZhR9j-286" value="" style="line;strokeWidth=1;fillColor=none;align=left;verticalAlign=middle;spacingTop=-1;spacingLeft=3;spacingRight=3;rotatable=0;labelPosition=right;points=[];portConstraint=eastwest;" parent="neuzF8ryyaMldTGZhR9j-283" vertex="1">
          <mxGeometry y="20" width="130" height="8" as="geometry" />
        </mxCell>
        <mxCell id="neuzF8ryyaMldTGZhR9j-287" value="&lt;font style=&quot;font-size: 10px&quot;&gt;avatars, privacy, tracking, t&amp;amp;c,&lt;br&gt;group resources, etc.&lt;br&gt;&lt;/font&gt;" style="html=1;align=center;spacingLeft=4;verticalAlign=top;strokeColor=none;fillColor=none;spacingTop=-12;" parent="neuzF8ryyaMldTGZhR9j-283" vertex="1">
          <mxGeometry y="28" width="130" height="25" as="geometry" />
        </mxCell>
        <mxCell id="neuzF8ryyaMldTGZhR9j-311" value="" style="fontStyle=1;align=center;verticalAlign=top;childLayout=stackLayout;horizontal=1;horizontalStack=0;resizeParent=1;resizeParentMax=0;resizeLast=0;marginBottom=0;strokeColor=#d6b656;strokeWidth=2;fillColor=none;" parent="neuzF8ryyaMldTGZhR9j-282" vertex="1">
          <mxGeometry x="10" y="83.5" width="130" height="53" as="geometry" />
        </mxCell>
        <mxCell id="neuzF8ryyaMldTGZhR9j-312" value="Tagging/Metadata/SEO&lt;br&gt;Management" style="html=1;align=left;spacingLeft=4;verticalAlign=middle;strokeColor=none;fillColor=none;fontStyle=1" parent="neuzF8ryyaMldTGZhR9j-311" vertex="1">
          <mxGeometry width="130" height="20" as="geometry" />
        </mxCell>
        <mxCell id="neuzF8ryyaMldTGZhR9j-313" value="" style="shape=ellipse;" parent="neuzF8ryyaMldTGZhR9j-312" vertex="1">
          <mxGeometry x="1" width="20" height="16" relative="1" as="geometry">
            <mxPoint x="-25" y="7" as="offset" />
          </mxGeometry>
        </mxCell>
        <mxCell id="neuzF8ryyaMldTGZhR9j-314" value="" style="line;strokeWidth=1;fillColor=none;align=left;verticalAlign=middle;spacingTop=-1;spacingLeft=3;spacingRight=3;rotatable=0;labelPosition=right;points=[];portConstraint=eastwest;" parent="neuzF8ryyaMldTGZhR9j-311" vertex="1">
          <mxGeometry y="20" width="130" height="8" as="geometry" />
        </mxCell>
        <mxCell id="neuzF8ryyaMldTGZhR9j-315" value="&lt;span style=&quot;font-size: 10px&quot;&gt;SEO is for Web Search&lt;/span&gt;&lt;br style=&quot;font-size: 10px&quot;&gt;&lt;span style=&quot;font-size: 10px&quot;&gt;Metadata is for internal search&amp;nbsp;&lt;/span&gt;" style="html=1;align=center;spacingLeft=4;verticalAlign=top;strokeColor=none;fillColor=none;spacingTop=-12;" parent="neuzF8ryyaMldTGZhR9j-311" vertex="1">
          <mxGeometry y="28" width="130" height="25" as="geometry" />
        </mxCell>
        <mxCell id="neuzF8ryyaMldTGZhR9j-160" value="" style="fontStyle=1;align=center;verticalAlign=top;childLayout=stackLayout;horizontal=1;horizontalStack=0;resizeParent=1;resizeParentMax=0;resizeLast=0;marginBottom=0;strokeColor=#d6b656;strokeWidth=2;fillColor=none;" parent="kqEcUKh6x4xUHImFHUBu-1" vertex="1">
          <mxGeometry x="290" y="350" width="130" height="53" as="geometry" />
        </mxCell>
        <mxCell id="neuzF8ryyaMldTGZhR9j-161" value="User &lt;br&gt;Mgmt" style="html=1;align=left;spacingLeft=4;verticalAlign=middle;strokeColor=none;fillColor=none;fontStyle=1" parent="neuzF8ryyaMldTGZhR9j-160" vertex="1">
          <mxGeometry width="130" height="20" as="geometry" />
        </mxCell>
        <mxCell id="neuzF8ryyaMldTGZhR9j-162" value="" style="shape=ellipse;" parent="neuzF8ryyaMldTGZhR9j-161" vertex="1">
          <mxGeometry x="1" width="20" height="16" relative="1" as="geometry">
            <mxPoint x="-25" y="7" as="offset" />
          </mxGeometry>
        </mxCell>
        <mxCell id="neuzF8ryyaMldTGZhR9j-163" value="" style="line;strokeWidth=1;fillColor=none;align=left;verticalAlign=middle;spacingTop=-1;spacingLeft=3;spacingRight=3;rotatable=0;labelPosition=right;points=[];portConstraint=eastwest;" parent="neuzF8ryyaMldTGZhR9j-160" vertex="1">
          <mxGeometry y="20" width="130" height="8" as="geometry" />
        </mxCell>
        <mxCell id="neuzF8ryyaMldTGZhR9j-164" value="&lt;font style=&quot;font-size: 10px&quot;&gt;A user can belong to &lt;br&gt;multiple groups, orgs tenancies&lt;/font&gt;" style="html=1;align=center;spacingLeft=4;verticalAlign=top;strokeColor=none;fillColor=none;spacingTop=-12;" parent="neuzF8ryyaMldTGZhR9j-160" vertex="1">
          <mxGeometry y="28" width="130" height="25" as="geometry" />
        </mxCell>
        <mxCell id="neuzF8ryyaMldTGZhR9j-165" value="" style="fontStyle=1;align=center;verticalAlign=top;childLayout=stackLayout;horizontal=1;horizontalStack=0;resizeParent=1;resizeParentMax=0;resizeLast=0;marginBottom=0;strokeColor=#d6b656;strokeWidth=2;fillColor=none;" parent="kqEcUKh6x4xUHImFHUBu-1" vertex="1">
          <mxGeometry x="290" y="413" width="130" height="53" as="geometry" />
        </mxCell>
        <mxCell id="neuzF8ryyaMldTGZhR9j-166" value="Group&lt;br&gt;Mgmt" style="html=1;align=left;spacingLeft=4;verticalAlign=middle;strokeColor=none;fillColor=none;fontStyle=1" parent="neuzF8ryyaMldTGZhR9j-165" vertex="1">
          <mxGeometry width="130" height="20" as="geometry" />
        </mxCell>
        <mxCell id="neuzF8ryyaMldTGZhR9j-167" value="" style="shape=ellipse;" parent="neuzF8ryyaMldTGZhR9j-166" vertex="1">
          <mxGeometry x="1" width="20" height="16" relative="1" as="geometry">
            <mxPoint x="-25" y="7" as="offset" />
          </mxGeometry>
        </mxCell>
        <mxCell id="neuzF8ryyaMldTGZhR9j-168" value="" style="line;strokeWidth=1;fillColor=none;align=left;verticalAlign=middle;spacingTop=-1;spacingLeft=3;spacingRight=3;rotatable=0;labelPosition=right;points=[];portConstraint=eastwest;" parent="neuzF8ryyaMldTGZhR9j-165" vertex="1">
          <mxGeometry y="20" width="130" height="8" as="geometry" />
        </mxCell>
        <mxCell id="neuzF8ryyaMldTGZhR9j-169" value="&lt;font style=&quot;font-size: 10px&quot;&gt;A Group can be elevated &lt;br&gt;to being an Org, or Tenancy&lt;/font&gt;" style="html=1;align=center;spacingLeft=4;verticalAlign=top;strokeColor=none;fillColor=none;spacingTop=-11;" parent="neuzF8ryyaMldTGZhR9j-165" vertex="1">
          <mxGeometry y="28" width="130" height="25" as="geometry" />
        </mxCell>
        <mxCell id="neuzF8ryyaMldTGZhR9j-300" value="Discovery" style="rounded=1;whiteSpace=wrap;html=1;strokeWidth=1;fillColor=none;dashed=1;absoluteArcSize=1;arcSize=8;container=1;collapsible=0;recursiveResize=0;align=left;verticalAlign=top;" parent="kqEcUKh6x4xUHImFHUBu-1" vertex="1">
          <mxGeometry x="440" y="700" width="150" height="150" as="geometry" />
        </mxCell>
        <mxCell id="neuzF8ryyaMldTGZhR9j-295" value="" style="fontStyle=1;align=center;verticalAlign=top;childLayout=stackLayout;horizontal=1;horizontalStack=0;resizeParent=1;resizeParentMax=0;resizeLast=0;marginBottom=0;strokeColor=#d6b656;strokeWidth=2;fillColor=none;" parent="neuzF8ryyaMldTGZhR9j-300" vertex="1">
          <mxGeometry x="10" y="24" width="130" height="53" as="geometry" />
        </mxCell>
        <mxCell id="neuzF8ryyaMldTGZhR9j-296" value="Routing" style="html=1;align=left;spacingLeft=4;verticalAlign=middle;strokeColor=none;fillColor=none;fontStyle=1" parent="neuzF8ryyaMldTGZhR9j-295" vertex="1">
          <mxGeometry width="130" height="20" as="geometry" />
        </mxCell>
        <mxCell id="neuzF8ryyaMldTGZhR9j-297" value="" style="shape=ellipse;" parent="neuzF8ryyaMldTGZhR9j-296" vertex="1">
          <mxGeometry x="1" width="20" height="16" relative="1" as="geometry">
            <mxPoint x="-25" y="7" as="offset" />
          </mxGeometry>
        </mxCell>
        <mxCell id="neuzF8ryyaMldTGZhR9j-298" value="" style="line;strokeWidth=1;fillColor=none;align=left;verticalAlign=middle;spacingTop=-1;spacingLeft=3;spacingRight=3;rotatable=0;labelPosition=right;points=[];portConstraint=eastwest;" parent="neuzF8ryyaMldTGZhR9j-295" vertex="1">
          <mxGeometry y="20" width="130" height="8" as="geometry" />
        </mxCell>
        <mxCell id="neuzF8ryyaMldTGZhR9j-299" value="&lt;font style=&quot;font-size: 10px&quot;&gt;Dif Versions of Resources&lt;br&gt;&amp;nbsp;can be found by Id&lt;/font&gt;" style="html=1;align=center;spacingLeft=4;verticalAlign=top;strokeColor=none;fillColor=none;spacingTop=-12;" parent="neuzF8ryyaMldTGZhR9j-295" vertex="1">
          <mxGeometry y="28" width="130" height="25" as="geometry" />
        </mxCell>
        <mxCell id="neuzF8ryyaMldTGZhR9j-288" value="" style="fontStyle=1;align=center;verticalAlign=top;childLayout=stackLayout;horizontal=1;horizontalStack=0;resizeParent=1;resizeParentMax=0;resizeLast=0;marginBottom=0;strokeColor=#d6b656;strokeWidth=2;fillColor=none;" parent="kqEcUKh6x4xUHImFHUBu-1" vertex="1">
          <mxGeometry x="450" y="790" width="130" height="53" as="geometry" />
        </mxCell>
        <mxCell id="neuzF8ryyaMldTGZhR9j-289" value="Search" style="html=1;align=left;spacingLeft=4;verticalAlign=middle;strokeColor=none;fillColor=none;fontStyle=1" parent="neuzF8ryyaMldTGZhR9j-288" vertex="1">
          <mxGeometry width="130" height="20" as="geometry" />
        </mxCell>
        <mxCell id="neuzF8ryyaMldTGZhR9j-290" value="" style="shape=ellipse;" parent="neuzF8ryyaMldTGZhR9j-289" vertex="1">
          <mxGeometry x="1" width="20" height="16" relative="1" as="geometry">
            <mxPoint x="-25" y="7" as="offset" />
          </mxGeometry>
        </mxCell>
        <mxCell id="neuzF8ryyaMldTGZhR9j-291" value="" style="line;strokeWidth=1;fillColor=none;align=left;verticalAlign=middle;spacingTop=-1;spacingLeft=3;spacingRight=3;rotatable=0;labelPosition=right;points=[];portConstraint=eastwest;" parent="neuzF8ryyaMldTGZhR9j-288" vertex="1">
          <mxGeometry y="20" width="130" height="8" as="geometry" />
        </mxCell>
        <mxCell id="neuzF8ryyaMldTGZhR9j-292" value="&lt;font style=&quot;font-size: 10px&quot;&gt;&lt;i&gt;&quot;Forgiving text-based Search &lt;br&gt;is the new MenuBar&quot;&lt;/i&gt;&lt;/font&gt;" style="html=1;align=center;spacingLeft=4;verticalAlign=top;strokeColor=none;fillColor=none;spacingTop=-12;" parent="neuzF8ryyaMldTGZhR9j-288" vertex="1">
          <mxGeometry y="28" width="130" height="25" as="geometry" />
        </mxCell>
        <mxCell id="neuzF8ryyaMldTGZhR9j-316" value="Operations Management" style="rounded=1;whiteSpace=wrap;html=1;strokeWidth=1;fillColor=none;dashed=1;absoluteArcSize=1;arcSize=8;container=1;collapsible=0;recursiveResize=0;align=left;verticalAlign=top;" parent="kqEcUKh6x4xUHImFHUBu-1" vertex="1">
          <mxGeometry x="280" y="700" width="150" height="150" as="geometry" />
        </mxCell>
        <mxCell id="neuzF8ryyaMldTGZhR9j-317" value="" style="fontStyle=1;align=center;verticalAlign=top;childLayout=stackLayout;horizontal=1;horizontalStack=0;resizeParent=1;resizeParentMax=0;resizeLast=0;marginBottom=0;strokeColor=#d6b656;strokeWidth=2;fillColor=none;" parent="neuzF8ryyaMldTGZhR9j-316" vertex="1">
          <mxGeometry x="10" y="24" width="130" height="53" as="geometry" />
        </mxCell>
        <mxCell id="neuzF8ryyaMldTGZhR9j-318" value="Operations Queues" style="html=1;align=left;spacingLeft=4;verticalAlign=middle;strokeColor=none;fillColor=none;fontStyle=1" parent="neuzF8ryyaMldTGZhR9j-317" vertex="1">
          <mxGeometry width="130" height="20" as="geometry" />
        </mxCell>
        <mxCell id="neuzF8ryyaMldTGZhR9j-319" value="" style="shape=ellipse;" parent="neuzF8ryyaMldTGZhR9j-318" vertex="1">
          <mxGeometry x="1" width="20" height="16" relative="1" as="geometry">
            <mxPoint x="-25" y="7" as="offset" />
          </mxGeometry>
        </mxCell>
        <mxCell id="neuzF8ryyaMldTGZhR9j-320" value="" style="line;strokeWidth=1;fillColor=none;align=left;verticalAlign=middle;spacingTop=-1;spacingLeft=3;spacingRight=3;rotatable=0;labelPosition=right;points=[];portConstraint=eastwest;" parent="neuzF8ryyaMldTGZhR9j-317" vertex="1">
          <mxGeometry y="20" width="130" height="8" as="geometry" />
        </mxCell>
        <mxCell id="neuzF8ryyaMldTGZhR9j-321" value="&lt;font style=&quot;font-size: 10px ; line-height: 100%&quot;&gt;Async Undoable Command &lt;br&gt;Pattern queue engine&lt;/font&gt;" style="html=1;align=center;spacingLeft=4;verticalAlign=top;strokeColor=none;fillColor=none;spacingTop=-11;" parent="neuzF8ryyaMldTGZhR9j-317" vertex="1">
          <mxGeometry y="28" width="130" height="25" as="geometry" />
        </mxCell>
        <mxCell id="neuzF8ryyaMldTGZhR9j-322" value="" style="fontStyle=1;align=center;verticalAlign=top;childLayout=stackLayout;horizontal=1;horizontalStack=0;resizeParent=1;resizeParentMax=0;resizeLast=0;marginBottom=0;strokeColor=#d6b656;strokeWidth=2;fillColor=none;" parent="neuzF8ryyaMldTGZhR9j-316" vertex="1">
          <mxGeometry x="10" y="90" width="130" height="53" as="geometry" />
        </mxCell>
        <mxCell id="neuzF8ryyaMldTGZhR9j-323" value="Workflow Queues" style="html=1;align=left;spacingLeft=4;verticalAlign=middle;strokeColor=none;fillColor=none;fontStyle=1" parent="neuzF8ryyaMldTGZhR9j-322" vertex="1">
          <mxGeometry width="130" height="20" as="geometry" />
        </mxCell>
        <mxCell id="neuzF8ryyaMldTGZhR9j-324" value="" style="shape=ellipse;" parent="neuzF8ryyaMldTGZhR9j-323" vertex="1">
          <mxGeometry x="1" width="20" height="16" relative="1" as="geometry">
            <mxPoint x="-25" y="7" as="offset" />
          </mxGeometry>
        </mxCell>
        <mxCell id="neuzF8ryyaMldTGZhR9j-325" value="" style="line;strokeWidth=1;fillColor=none;align=left;verticalAlign=middle;spacingTop=-1;spacingLeft=3;spacingRight=3;rotatable=0;labelPosition=right;points=[];portConstraint=eastwest;" parent="neuzF8ryyaMldTGZhR9j-322" vertex="1">
          <mxGeometry y="20" width="130" height="8" as="geometry" />
        </mxCell>
        <mxCell id="neuzF8ryyaMldTGZhR9j-326" value="&lt;p style=&quot;line-height: 90%&quot;&gt;&lt;font style=&quot;font-size: 10px ; line-height: 90%&quot;&gt;Async, Role based&amp;nbsp; &lt;br&gt;approval required, ops engine&lt;/font&gt;&lt;/p&gt;" style="html=1;align=center;spacingLeft=4;verticalAlign=top;strokeColor=none;fillColor=none;spacingTop=-18;" parent="neuzF8ryyaMldTGZhR9j-322" vertex="1">
          <mxGeometry y="28" width="130" height="25" as="geometry" />
        </mxCell>
        <mxCell id="neuzF8ryyaMldTGZhR9j-327" value="Integration / Reuse" style="rounded=1;whiteSpace=wrap;html=1;strokeWidth=1;fillColor=none;dashed=1;absoluteArcSize=1;arcSize=8;container=1;collapsible=0;recursiveResize=0;align=left;verticalAlign=top;" parent="kqEcUKh6x4xUHImFHUBu-1" vertex="1">
          <mxGeometry x="120" y="700" width="150" height="150" as="geometry" />
        </mxCell>
        <mxCell id="neuzF8ryyaMldTGZhR9j-333" value="" style="fontStyle=1;align=center;verticalAlign=top;childLayout=stackLayout;horizontal=1;horizontalStack=0;resizeParent=1;resizeParentMax=0;resizeLast=0;marginBottom=0;strokeColor=#d6b656;strokeWidth=2;fillColor=none;" parent="neuzF8ryyaMldTGZhR9j-327" vertex="1">
          <mxGeometry x="10" y="24" width="130" height="53" as="geometry" />
        </mxCell>
        <mxCell id="neuzF8ryyaMldTGZhR9j-334" value="Device Integration" style="html=1;align=left;spacingLeft=4;verticalAlign=middle;strokeColor=none;fillColor=none;fontStyle=1" parent="neuzF8ryyaMldTGZhR9j-333" vertex="1">
          <mxGeometry width="130" height="20" as="geometry" />
        </mxCell>
        <mxCell id="neuzF8ryyaMldTGZhR9j-335" value="" style="shape=ellipse;" parent="neuzF8ryyaMldTGZhR9j-334" vertex="1">
          <mxGeometry x="1" width="20" height="16" relative="1" as="geometry">
            <mxPoint x="-25" y="7" as="offset" />
          </mxGeometry>
        </mxCell>
        <mxCell id="neuzF8ryyaMldTGZhR9j-336" value="" style="line;strokeWidth=1;fillColor=none;align=left;verticalAlign=middle;spacingTop=-1;spacingLeft=3;spacingRight=3;rotatable=0;labelPosition=right;points=[];portConstraint=eastwest;" parent="neuzF8ryyaMldTGZhR9j-333" vertex="1">
          <mxGeometry y="20" width="130" height="8" as="geometry" />
        </mxCell>
        <mxCell id="neuzF8ryyaMldTGZhR9j-337" value="&lt;font style=&quot;font-size: 10px&quot;&gt;SvcAccount/Date/Time&lt;/font&gt;" style="html=1;align=center;spacingLeft=4;verticalAlign=top;strokeColor=none;fillColor=none;" parent="neuzF8ryyaMldTGZhR9j-333" vertex="1">
          <mxGeometry y="28" width="130" height="25" as="geometry" />
        </mxCell>
        <mxCell id="neuzF8ryyaMldTGZhR9j-328" value="" style="fontStyle=1;align=center;verticalAlign=top;childLayout=stackLayout;horizontal=1;horizontalStack=0;resizeParent=1;resizeParentMax=0;resizeLast=0;marginBottom=0;strokeColor=#d6b656;strokeWidth=2;fillColor=none;" parent="kqEcUKh6x4xUHImFHUBu-1" vertex="1">
          <mxGeometry x="130" y="790" width="130" height="53" as="geometry" />
        </mxCell>
        <mxCell id="neuzF8ryyaMldTGZhR9j-329" value="Environment Services" style="html=1;align=left;spacingLeft=4;verticalAlign=middle;strokeColor=none;fillColor=none;fontStyle=1" parent="neuzF8ryyaMldTGZhR9j-328" vertex="1">
          <mxGeometry width="130" height="20" as="geometry" />
        </mxCell>
        <mxCell id="neuzF8ryyaMldTGZhR9j-330" value="" style="shape=ellipse;" parent="neuzF8ryyaMldTGZhR9j-329" vertex="1">
          <mxGeometry x="1" width="20" height="16" relative="1" as="geometry">
            <mxPoint x="-25" y="7" as="offset" />
          </mxGeometry>
        </mxCell>
        <mxCell id="neuzF8ryyaMldTGZhR9j-331" value="" style="line;strokeWidth=1;fillColor=none;align=left;verticalAlign=middle;spacingTop=-1;spacingLeft=3;spacingRight=3;rotatable=0;labelPosition=right;points=[];portConstraint=eastwest;" parent="neuzF8ryyaMldTGZhR9j-328" vertex="1">
          <mxGeometry y="20" width="130" height="8" as="geometry" />
        </mxCell>
        <mxCell id="neuzF8ryyaMldTGZhR9j-332" value="&lt;font style=&quot;font-size: 10px ; line-height: 90%&quot;&gt;Storage/Caching/&lt;br&gt;Cloud &amp;amp; Validation Svcs&lt;/font&gt;" style="html=1;align=center;spacingLeft=4;verticalAlign=top;strokeColor=none;fillColor=none;spacing=0;spacingTop=-8;" parent="neuzF8ryyaMldTGZhR9j-328" vertex="1">
          <mxGeometry y="28" width="130" height="25" as="geometry" />
        </mxCell>
        <mxCell id="EdGKaBAgPQJkY8G7s_N1-0" value="Title" parent="kqEcUKh6x4xUHImFHUBu-0" visible="0" />
        <mxCell id="uaey2Lb_M5UtE8PVYDBB-25" value="&lt;font style=&quot;font-size: 12px&quot;&gt;Diagram: Base System Logical Module - Functionality Groups - High Level&lt;/font&gt;" style="text;strokeColor=none;fillColor=none;html=1;fontSize=12;fontStyle=2;verticalAlign=middle;align=left;shadow=0;glass=0;comic=0;opacity=30;fontColor=#808080;strokeWidth=1;" parent="EdGKaBAgPQJkY8G7s_N1-0" vertex="1">
          <mxGeometry x="120" y="860" width="520" height="20" as="geometry" />
        </mxCell>
      </root>
    </mxGraphModel>
  </diagram>
</mxfile>
